<mxfile host="app.diagrams.net" modified="2021-05-08T16:30:31.464Z" agent="5.0 (Macintosh; Intel Mac OS X 10_15_7) AppleWebKit/537.36 (KHTML, like Gecko) Chrome/90.0.4430.93 Safari/537.36" etag="RYdQdUy87CVMyhPFHe1I" version="14.6.10" type="github" pages="4">
  <diagram id="SoVT4zm1WJRIuKAObFV5" name="Widget 1 - Accordion">
    <mxGraphModel dx="463" dy="451" grid="1" gridSize="10" guides="1" tooltips="1" connect="1" arrows="1" fold="1" page="1" pageScale="1" pageWidth="1169" pageHeight="827" math="0" shadow="0">
      <root>
        <mxCell id="0" />
        <mxCell id="1" parent="0" />
        <mxCell id="oJjnDuGi4azKmZHeQrfg-1" value="Accordion" style="text;html=1;align=center;verticalAlign=middle;resizable=0;points=[];autosize=1;fillColor=#dae8fc;strokeColor=#6c8ebf;rounded=1;" vertex="1" parent="1">
          <mxGeometry x="405" y="339" width="70" height="20" as="geometry" />
        </mxCell>
        <mxCell id="oJjnDuGi4azKmZHeQrfg-2" value="List" style="text;html=1;align=center;verticalAlign=middle;resizable=0;points=[];autosize=1;strokeColor=none;" vertex="1" parent="1">
          <mxGeometry x="505" y="339" width="30" height="20" as="geometry" />
        </mxCell>
        <mxCell id="oJjnDuGi4azKmZHeQrfg-3" value="Dropdown" style="text;html=1;align=center;verticalAlign=middle;resizable=0;points=[];autosize=1;" vertex="1" parent="1">
          <mxGeometry x="555" y="339" width="70" height="20" as="geometry" />
        </mxCell>
        <mxCell id="oJjnDuGi4azKmZHeQrfg-4" value="Translate" style="text;html=1;align=center;verticalAlign=middle;resizable=0;points=[];autosize=1;strokeColor=none;" vertex="1" parent="1">
          <mxGeometry x="645" y="339" width="70" height="20" as="geometry" />
        </mxCell>
        <mxCell id="oJjnDuGi4azKmZHeQrfg-6" value="" style="line;strokeWidth=2;html=1;" vertex="1" parent="1">
          <mxGeometry x="405" y="369" width="360" height="10" as="geometry" />
        </mxCell>
        <mxCell id="oJjnDuGi4azKmZHeQrfg-129" value="" style="group;fillColor=#f5f5f5;strokeColor=#666666;fontColor=#333333;" vertex="1" connectable="0" parent="1">
          <mxGeometry x="405" y="389" width="340" height="100" as="geometry" />
        </mxCell>
        <mxCell id="oJjnDuGi4azKmZHeQrfg-118" value="" style="group" vertex="1" connectable="0" parent="oJjnDuGi4azKmZHeQrfg-129">
          <mxGeometry width="340" height="40" as="geometry" />
        </mxCell>
        <mxCell id="oJjnDuGi4azKmZHeQrfg-116" value="" style="group;rounded=0;strokeColor=#000000;container=0;" vertex="1" connectable="0" parent="oJjnDuGi4azKmZHeQrfg-118">
          <mxGeometry width="340" height="40" as="geometry" />
        </mxCell>
        <mxCell id="oJjnDuGi4azKmZHeQrfg-91" value="&lt;b&gt;What is React?&lt;/b&gt;&lt;br&gt;React is a JavaScript library for building user interfaces." style="text;html=1;strokeColor=none;fillColor=none;align=left;verticalAlign=top;whiteSpace=wrap;rounded=0;" vertex="1" parent="oJjnDuGi4azKmZHeQrfg-118">
          <mxGeometry x="28.329999999999984" width="311.67" height="40" as="geometry" />
        </mxCell>
        <mxCell id="oJjnDuGi4azKmZHeQrfg-114" value="" style="html=1;verticalLabelPosition=bottom;labelBackgroundColor=#ffffff;verticalAlign=top;shadow=0;dashed=0;strokeWidth=2;shape=mxgraph.ios7.misc.down;rounded=0;fillColor=#ffffff;gradientColor=none;align=left;" vertex="1" parent="oJjnDuGi4azKmZHeQrfg-118">
          <mxGeometry x="8.169999999999987" y="11" width="12" height="6" as="geometry" />
        </mxCell>
        <mxCell id="oJjnDuGi4azKmZHeQrfg-119" value="" style="group" vertex="1" connectable="0" parent="oJjnDuGi4azKmZHeQrfg-129">
          <mxGeometry width="340" height="40" as="geometry" />
        </mxCell>
        <mxCell id="oJjnDuGi4azKmZHeQrfg-123" value="" style="group" vertex="1" connectable="0" parent="oJjnDuGi4azKmZHeQrfg-119">
          <mxGeometry y="40" width="340" height="30" as="geometry" />
        </mxCell>
        <mxCell id="oJjnDuGi4azKmZHeQrfg-120" value="" style="group;rounded=0;strokeColor=#000000;container=0;" vertex="1" connectable="0" parent="oJjnDuGi4azKmZHeQrfg-123">
          <mxGeometry width="340" height="30" as="geometry" />
        </mxCell>
        <mxCell id="oJjnDuGi4azKmZHeQrfg-121" value="&lt;b&gt;What is Vue?&lt;/b&gt;" style="text;html=1;strokeColor=none;fillColor=none;align=left;verticalAlign=middle;whiteSpace=wrap;rounded=0;" vertex="1" parent="oJjnDuGi4azKmZHeQrfg-123">
          <mxGeometry x="28.33" width="311.67" height="30" as="geometry" />
        </mxCell>
        <mxCell id="oJjnDuGi4azKmZHeQrfg-102" value="" style="html=1;verticalLabelPosition=bottom;labelBackgroundColor=#ffffff;verticalAlign=middle;shadow=0;dashed=0;strokeWidth=2;shape=mxgraph.ios7.misc.right;rounded=0;align=left;" vertex="1" parent="oJjnDuGi4azKmZHeQrfg-123">
          <mxGeometry x="10.000000000000028" y="9" width="6" height="12" as="geometry" />
        </mxCell>
        <mxCell id="oJjnDuGi4azKmZHeQrfg-125" value="" style="group" vertex="1" connectable="0" parent="oJjnDuGi4azKmZHeQrfg-129">
          <mxGeometry y="70" width="340" height="30" as="geometry" />
        </mxCell>
        <mxCell id="oJjnDuGi4azKmZHeQrfg-126" value="" style="group;rounded=0;strokeColor=#000000;container=0;" vertex="1" connectable="0" parent="oJjnDuGi4azKmZHeQrfg-125">
          <mxGeometry width="340" height="30" as="geometry" />
        </mxCell>
        <mxCell id="oJjnDuGi4azKmZHeQrfg-127" value="&lt;b&gt;What is Angular?&lt;/b&gt;" style="text;html=1;strokeColor=none;fillColor=none;align=left;verticalAlign=middle;whiteSpace=wrap;rounded=0;" vertex="1" parent="oJjnDuGi4azKmZHeQrfg-125">
          <mxGeometry x="28.33" width="311.67" height="30" as="geometry" />
        </mxCell>
        <mxCell id="oJjnDuGi4azKmZHeQrfg-128" value="" style="html=1;verticalLabelPosition=bottom;labelBackgroundColor=#ffffff;verticalAlign=middle;shadow=0;dashed=0;strokeWidth=2;shape=mxgraph.ios7.misc.right;rounded=0;align=left;" vertex="1" parent="oJjnDuGi4azKmZHeQrfg-125">
          <mxGeometry x="10.000000000000028" y="9" width="6" height="12" as="geometry" />
        </mxCell>
        <mxCell id="oJjnDuGi4azKmZHeQrfg-130" value="Widget 1 - Accordion" style="text;html=1;align=center;verticalAlign=middle;resizable=0;points=[];autosize=1;strokeColor=none;fontStyle=1;fontSize=20;" vertex="1" parent="1">
          <mxGeometry x="480" y="280" width="210" height="30" as="geometry" />
        </mxCell>
      </root>
    </mxGraphModel>
  </diagram>
  <diagram name="Widget 2 - List" id="7X_ozWh_A5-a-7fjfU8Q">
    <mxGraphModel dx="559" dy="545" grid="1" gridSize="10" guides="1" tooltips="1" connect="1" arrows="1" fold="1" page="1" pageScale="1" pageWidth="1169" pageHeight="827" math="0" shadow="0">
      <root>
        <mxCell id="5xxxD_j0gsJ1KlllMqnm-0" />
        <mxCell id="5xxxD_j0gsJ1KlllMqnm-1" parent="5xxxD_j0gsJ1KlllMqnm-0" />
        <mxCell id="5xxxD_j0gsJ1KlllMqnm-2" value="Accordion" style="text;html=1;align=center;verticalAlign=middle;resizable=0;points=[];autosize=1;rounded=0;" vertex="1" parent="5xxxD_j0gsJ1KlllMqnm-1">
          <mxGeometry x="405" y="339" width="70" height="20" as="geometry" />
        </mxCell>
        <mxCell id="5xxxD_j0gsJ1KlllMqnm-3" value="List" style="text;html=1;align=center;verticalAlign=middle;resizable=0;points=[];autosize=1;strokeColor=#6c8ebf;fillColor=#dae8fc;rounded=1;" vertex="1" parent="5xxxD_j0gsJ1KlllMqnm-1">
          <mxGeometry x="505" y="339" width="30" height="20" as="geometry" />
        </mxCell>
        <mxCell id="5xxxD_j0gsJ1KlllMqnm-4" value="Dropdown" style="text;html=1;align=center;verticalAlign=middle;resizable=0;points=[];autosize=1;" vertex="1" parent="5xxxD_j0gsJ1KlllMqnm-1">
          <mxGeometry x="555" y="339" width="70" height="20" as="geometry" />
        </mxCell>
        <mxCell id="5xxxD_j0gsJ1KlllMqnm-5" value="Translate" style="text;html=1;align=center;verticalAlign=middle;resizable=0;points=[];autosize=1;strokeColor=none;" vertex="1" parent="5xxxD_j0gsJ1KlllMqnm-1">
          <mxGeometry x="645" y="339" width="70" height="20" as="geometry" />
        </mxCell>
        <mxCell id="5xxxD_j0gsJ1KlllMqnm-6" value="" style="line;strokeWidth=2;html=1;" vertex="1" parent="5xxxD_j0gsJ1KlllMqnm-1">
          <mxGeometry x="405" y="369" width="360" height="10" as="geometry" />
        </mxCell>
        <mxCell id="5xxxD_j0gsJ1KlllMqnm-21" value="Widget 2 - List" style="text;html=1;align=center;verticalAlign=middle;resizable=0;points=[];autosize=1;strokeColor=none;fontStyle=1;fontSize=20;" vertex="1" parent="5xxxD_j0gsJ1KlllMqnm-1">
          <mxGeometry x="510" y="280" width="150" height="30" as="geometry" />
        </mxCell>
        <mxCell id="5xxxD_j0gsJ1KlllMqnm-22" value="" style="shape=rect;fillColor=#e0e0e0;strokeColor=none;rounded=0;shadow=0;fontSize=20;align=left;" vertex="1" parent="5xxxD_j0gsJ1KlllMqnm-1">
          <mxGeometry x="407" y="420" width="330" height="30" as="geometry" />
        </mxCell>
        <mxCell id="5xxxD_j0gsJ1KlllMqnm-23" value="" style="html=1;strokeWidth=1;shadow=0;dashed=0;shape=mxgraph.ios7ui.marginRect;rx=3;ry=3;rectMargin=5;strokeColor=none;" vertex="1" parent="5xxxD_j0gsJ1KlllMqnm-22">
          <mxGeometry width="330" height="30" as="geometry" />
        </mxCell>
        <mxCell id="5xxxD_j0gsJ1KlllMqnm-24" value="Search" style="shape=mxgraph.ios7.icons.looking_glass;strokeColor=#e0e0e0;fillColor=none;fontColor=#e0e0e0;labelPosition=right;verticalLabelPosition=middle;align=left;verticalAlign=middle;fontSize=12;fontStyle=0;spacingTop=2;" vertex="1" parent="5xxxD_j0gsJ1KlllMqnm-22">
          <mxGeometry x="0.5" y="0.5" width="16.5" height="16.5" relative="1" as="geometry">
            <mxPoint x="-27" y="-8" as="offset" />
          </mxGeometry>
        </mxCell>
        <mxCell id="5xxxD_j0gsJ1KlllMqnm-36" value="" style="group;fillColor=#f5f5f5;strokeColor=#666666;fontColor=#333333;" vertex="1" connectable="0" parent="5xxxD_j0gsJ1KlllMqnm-1">
          <mxGeometry x="407" y="466" width="355" height="40" as="geometry" />
        </mxCell>
        <mxCell id="5xxxD_j0gsJ1KlllMqnm-8" value="" style="group;align=left;" vertex="1" connectable="0" parent="5xxxD_j0gsJ1KlllMqnm-36">
          <mxGeometry width="355" height="40" as="geometry" />
        </mxCell>
        <mxCell id="5xxxD_j0gsJ1KlllMqnm-9" value="" style="group;rounded=0;strokeColor=#000000;container=0;" vertex="1" connectable="0" parent="5xxxD_j0gsJ1KlllMqnm-8">
          <mxGeometry width="355" height="40" as="geometry" />
        </mxCell>
        <mxCell id="5xxxD_j0gsJ1KlllMqnm-10" value="&lt;b&gt;React&lt;/b&gt;&lt;br&gt;React is a JavaScript library for building user interfaces." style="text;html=1;strokeColor=none;fillColor=none;align=left;verticalAlign=top;whiteSpace=wrap;rounded=0;" vertex="1" parent="5xxxD_j0gsJ1KlllMqnm-36">
          <mxGeometry x="9.57" width="300.43" height="40" as="geometry" />
        </mxCell>
        <mxCell id="5xxxD_j0gsJ1KlllMqnm-35" value="Go" style="rounded=1;fillColor=#dae8fc;strokeColor=#6c8ebf;html=1;align=center;verticalAlign=middle;fontStyle=0;fontSize=12;shadow=0;" vertex="1" parent="5xxxD_j0gsJ1KlllMqnm-36">
          <mxGeometry x="315.014705882353" y="3.5" width="34.45588235294118" height="33" as="geometry" />
        </mxCell>
        <mxCell id="5xxxD_j0gsJ1KlllMqnm-37" value="" style="group;fillColor=#f5f5f5;strokeColor=#666666;fontColor=#333333;" vertex="1" connectable="0" parent="5xxxD_j0gsJ1KlllMqnm-1">
          <mxGeometry x="407" y="506" width="355" height="40" as="geometry" />
        </mxCell>
        <mxCell id="5xxxD_j0gsJ1KlllMqnm-38" value="" style="group;align=left;" vertex="1" connectable="0" parent="5xxxD_j0gsJ1KlllMqnm-37">
          <mxGeometry width="355" height="40" as="geometry" />
        </mxCell>
        <mxCell id="5xxxD_j0gsJ1KlllMqnm-39" value="" style="group;rounded=0;strokeColor=#000000;container=0;" vertex="1" connectable="0" parent="5xxxD_j0gsJ1KlllMqnm-38">
          <mxGeometry width="355" height="40" as="geometry" />
        </mxCell>
        <mxCell id="5xxxD_j0gsJ1KlllMqnm-40" value="&lt;b&gt;Vue&lt;/b&gt;&lt;br&gt;&lt;div&gt;The Progressive&amp;nbsp;&lt;span&gt;JavaScript Framework.&lt;/span&gt;&lt;/div&gt;" style="text;html=1;strokeColor=none;fillColor=none;align=left;verticalAlign=top;whiteSpace=wrap;rounded=0;" vertex="1" parent="5xxxD_j0gsJ1KlllMqnm-37">
          <mxGeometry x="9.57" width="300.43" height="40" as="geometry" />
        </mxCell>
        <mxCell id="5xxxD_j0gsJ1KlllMqnm-41" value="Go" style="rounded=1;fillColor=#dae8fc;strokeColor=#6c8ebf;html=1;align=center;verticalAlign=middle;fontStyle=0;fontSize=12;shadow=0;" vertex="1" parent="5xxxD_j0gsJ1KlllMqnm-37">
          <mxGeometry x="315.014705882353" y="3.5" width="34.45588235294118" height="33" as="geometry" />
        </mxCell>
        <mxCell id="5xxxD_j0gsJ1KlllMqnm-47" value="" style="group;fillColor=#f5f5f5;strokeColor=#666666;fontColor=#333333;" vertex="1" connectable="0" parent="5xxxD_j0gsJ1KlllMqnm-1">
          <mxGeometry x="407" y="546" width="355" height="40" as="geometry" />
        </mxCell>
        <mxCell id="5xxxD_j0gsJ1KlllMqnm-48" value="" style="group;align=left;" vertex="1" connectable="0" parent="5xxxD_j0gsJ1KlllMqnm-47">
          <mxGeometry width="355" height="40" as="geometry" />
        </mxCell>
        <mxCell id="5xxxD_j0gsJ1KlllMqnm-49" value="" style="group;rounded=0;strokeColor=#000000;container=0;" vertex="1" connectable="0" parent="5xxxD_j0gsJ1KlllMqnm-48">
          <mxGeometry width="355" height="40" as="geometry" />
        </mxCell>
        <mxCell id="5xxxD_j0gsJ1KlllMqnm-50" value="&lt;b&gt;Angular&lt;/b&gt;&lt;br&gt;&lt;div&gt;The modern web&amp;nbsp;&lt;span&gt;developer&#39;s platform.&lt;/span&gt;&lt;/div&gt;" style="text;html=1;strokeColor=none;fillColor=none;align=left;verticalAlign=top;whiteSpace=wrap;rounded=0;" vertex="1" parent="5xxxD_j0gsJ1KlllMqnm-47">
          <mxGeometry x="9.57" width="300.43" height="40" as="geometry" />
        </mxCell>
        <mxCell id="5xxxD_j0gsJ1KlllMqnm-51" value="Go" style="rounded=1;fillColor=#dae8fc;strokeColor=#6c8ebf;html=1;align=center;verticalAlign=middle;fontStyle=0;fontSize=12;shadow=0;" vertex="1" parent="5xxxD_j0gsJ1KlllMqnm-47">
          <mxGeometry x="315.014705882353" y="3.5" width="34.45588235294118" height="33" as="geometry" />
        </mxCell>
        <mxCell id="8Oyul-zbl_qEBqKXpfBy-0" value="Search Wiki" style="text;html=1;align=left;verticalAlign=middle;resizable=0;points=[];autosize=1;strokeColor=none;fontSize=12;fontStyle=1" vertex="1" parent="5xxxD_j0gsJ1KlllMqnm-1">
          <mxGeometry x="405" y="390" width="80" height="20" as="geometry" />
        </mxCell>
      </root>
    </mxGraphModel>
  </diagram>
  <diagram name="Widget 3 - Dropdown" id="jIaX0M07mFeANAyhUekS">
    <mxGraphModel dx="671" dy="654" grid="1" gridSize="10" guides="1" tooltips="1" connect="1" arrows="1" fold="1" page="1" pageScale="1" pageWidth="1169" pageHeight="827" math="0" shadow="0">
      <root>
        <mxCell id="P-GxkD7vRX8z3lJYX35N-0" />
        <mxCell id="P-GxkD7vRX8z3lJYX35N-1" parent="P-GxkD7vRX8z3lJYX35N-0" />
        <mxCell id="P-GxkD7vRX8z3lJYX35N-2" value="Accordion" style="text;html=1;align=center;verticalAlign=middle;resizable=0;points=[];autosize=1;rounded=0;" vertex="1" parent="P-GxkD7vRX8z3lJYX35N-1">
          <mxGeometry x="405" y="339" width="70" height="20" as="geometry" />
        </mxCell>
        <mxCell id="P-GxkD7vRX8z3lJYX35N-3" value="List" style="text;html=1;align=center;verticalAlign=middle;resizable=0;points=[];autosize=1;rounded=1;" vertex="1" parent="P-GxkD7vRX8z3lJYX35N-1">
          <mxGeometry x="505" y="339" width="30" height="20" as="geometry" />
        </mxCell>
        <mxCell id="P-GxkD7vRX8z3lJYX35N-4" value="Dropdown" style="text;html=1;align=center;verticalAlign=middle;resizable=0;points=[];autosize=1;fillColor=#dae8fc;strokeColor=#6c8ebf;rounded=1;" vertex="1" parent="P-GxkD7vRX8z3lJYX35N-1">
          <mxGeometry x="555" y="339" width="70" height="20" as="geometry" />
        </mxCell>
        <mxCell id="P-GxkD7vRX8z3lJYX35N-5" value="Translate" style="text;html=1;align=center;verticalAlign=middle;resizable=0;points=[];autosize=1;strokeColor=none;" vertex="1" parent="P-GxkD7vRX8z3lJYX35N-1">
          <mxGeometry x="645" y="339" width="70" height="20" as="geometry" />
        </mxCell>
        <mxCell id="P-GxkD7vRX8z3lJYX35N-6" value="" style="line;strokeWidth=2;html=1;" vertex="1" parent="P-GxkD7vRX8z3lJYX35N-1">
          <mxGeometry x="405" y="369" width="360" height="10" as="geometry" />
        </mxCell>
        <mxCell id="P-GxkD7vRX8z3lJYX35N-7" value="Widget 3 - Dropdown" style="text;html=1;align=center;verticalAlign=middle;resizable=0;points=[];autosize=1;strokeColor=none;fontStyle=1;fontSize=20;" vertex="1" parent="P-GxkD7vRX8z3lJYX35N-1">
          <mxGeometry x="475" y="280" width="220" height="30" as="geometry" />
        </mxCell>
        <mxCell id="P-GxkD7vRX8z3lJYX35N-26" value="" style="dashed=0;align=center;fontSize=12;shape=rect;fillColor=#ffffff;strokeColor=#cccccc;shadow=0;rounded=0;" vertex="1" parent="P-GxkD7vRX8z3lJYX35N-1">
          <mxGeometry x="400" y="414" width="360" height="106" as="geometry" />
        </mxCell>
        <mxCell id="P-GxkD7vRX8z3lJYX35N-27" value="Red" style="shape=rect;fontColor=#000000;verticalAlign=middle;spacingLeft=13;fontSize=14;strokeColor=#cccccc;align=left;resizeWidth=1;" vertex="1" parent="P-GxkD7vRX8z3lJYX35N-26">
          <mxGeometry width="360" height="40" relative="1" as="geometry" />
        </mxCell>
        <mxCell id="P-GxkD7vRX8z3lJYX35N-28" value="" style="dashed=0;html=1;shape=mxgraph.gmdl.triangle;fillColor=#cccccc;strokeColor=none;" vertex="1" parent="P-GxkD7vRX8z3lJYX35N-27">
          <mxGeometry x="1" y="0.5" width="10" height="5" relative="1" as="geometry">
            <mxPoint x="-25" y="-2.5" as="offset" />
          </mxGeometry>
        </mxCell>
        <mxCell id="P-GxkD7vRX8z3lJYX35N-29" value="Green" style="shape=rect;align=left;fontColor=#000000;verticalAlign=middle;spacingLeft=13;fontSize=14;fillColor=#eeeeee;strokeColor=none;resizeWidth=1;" vertex="1" parent="P-GxkD7vRX8z3lJYX35N-26">
          <mxGeometry width="360" height="30" relative="1" as="geometry">
            <mxPoint y="41" as="offset" />
          </mxGeometry>
        </mxCell>
        <mxCell id="P-GxkD7vRX8z3lJYX35N-30" value="Blue" style="text;fontColor=#000000;verticalAlign=middle;spacingLeft=13;fontSize=14;resizeWidth=1;" vertex="1" parent="P-GxkD7vRX8z3lJYX35N-26">
          <mxGeometry width="360" height="30" relative="1" as="geometry">
            <mxPoint y="72" as="offset" />
          </mxGeometry>
        </mxCell>
        <mxCell id="H7U4Nz8d31LRYhQU1dJE-0" value="Select Color" style="text;html=1;align=left;verticalAlign=middle;resizable=0;points=[];autosize=1;strokeColor=none;fontSize=12;fontStyle=1" vertex="1" parent="P-GxkD7vRX8z3lJYX35N-1">
          <mxGeometry x="405" y="390" width="90" height="20" as="geometry" />
        </mxCell>
        <mxCell id="H7U4Nz8d31LRYhQU1dJE-1" value="This text is red." style="text;html=1;align=left;verticalAlign=middle;resizable=0;points=[];autosize=1;strokeColor=none;fontSize=12;fontStyle=1;fontColor=#FF0000;" vertex="1" parent="P-GxkD7vRX8z3lJYX35N-1">
          <mxGeometry x="400" y="550" width="100" height="20" as="geometry" />
        </mxCell>
      </root>
    </mxGraphModel>
  </diagram>
  <diagram name="Widget 4 - Translate" id="fq9vOy2Im_gMZi3PE8a6">
    <mxGraphModel dx="671" dy="654" grid="1" gridSize="10" guides="1" tooltips="1" connect="1" arrows="1" fold="1" page="1" pageScale="1" pageWidth="1169" pageHeight="827" math="0" shadow="0">
      <root>
        <mxCell id="MjV814G-3i1wZ1misCgF-0" />
        <mxCell id="MjV814G-3i1wZ1misCgF-1" parent="MjV814G-3i1wZ1misCgF-0" />
        <mxCell id="MjV814G-3i1wZ1misCgF-2" value="Accordion" style="text;html=1;align=center;verticalAlign=middle;resizable=0;points=[];autosize=1;rounded=0;" vertex="1" parent="MjV814G-3i1wZ1misCgF-1">
          <mxGeometry x="405" y="339" width="70" height="20" as="geometry" />
        </mxCell>
        <mxCell id="MjV814G-3i1wZ1misCgF-3" value="List" style="text;html=1;align=center;verticalAlign=middle;resizable=0;points=[];autosize=1;rounded=1;" vertex="1" parent="MjV814G-3i1wZ1misCgF-1">
          <mxGeometry x="505" y="339" width="30" height="20" as="geometry" />
        </mxCell>
        <mxCell id="MjV814G-3i1wZ1misCgF-4" value="Dropdown" style="text;html=1;align=center;verticalAlign=middle;resizable=0;points=[];autosize=1;rounded=1;" vertex="1" parent="MjV814G-3i1wZ1misCgF-1">
          <mxGeometry x="555" y="339" width="70" height="20" as="geometry" />
        </mxCell>
        <mxCell id="MjV814G-3i1wZ1misCgF-5" value="Translate" style="text;html=1;align=center;verticalAlign=middle;resizable=0;points=[];autosize=1;strokeColor=#6c8ebf;fillColor=#dae8fc;rounded=1;" vertex="1" parent="MjV814G-3i1wZ1misCgF-1">
          <mxGeometry x="645" y="339" width="70" height="20" as="geometry" />
        </mxCell>
        <mxCell id="MjV814G-3i1wZ1misCgF-6" value="" style="line;strokeWidth=2;html=1;" vertex="1" parent="MjV814G-3i1wZ1misCgF-1">
          <mxGeometry x="405" y="369" width="360" height="10" as="geometry" />
        </mxCell>
        <mxCell id="MjV814G-3i1wZ1misCgF-7" value="Widget 4 - Translate" style="text;html=1;align=center;verticalAlign=middle;resizable=0;points=[];autosize=1;strokeColor=none;fontStyle=1;fontSize=20;" vertex="1" parent="MjV814G-3i1wZ1misCgF-1">
          <mxGeometry x="485" y="280" width="200" height="30" as="geometry" />
        </mxCell>
        <mxCell id="MjV814G-3i1wZ1misCgF-8" value="" style="dashed=0;align=center;fontSize=12;shape=rect;fillColor=#ffffff;strokeColor=#cccccc;shadow=0;rounded=0;" vertex="1" parent="MjV814G-3i1wZ1misCgF-1">
          <mxGeometry x="405" y="520" width="360" height="106" as="geometry" />
        </mxCell>
        <mxCell id="MjV814G-3i1wZ1misCgF-9" value="Chinese" style="shape=rect;fontColor=#000000;verticalAlign=middle;spacingLeft=13;fontSize=14;strokeColor=#cccccc;align=left;resizeWidth=1;" vertex="1" parent="MjV814G-3i1wZ1misCgF-8">
          <mxGeometry width="360" height="40" relative="1" as="geometry" />
        </mxCell>
        <mxCell id="MjV814G-3i1wZ1misCgF-10" value="" style="dashed=0;html=1;shape=mxgraph.gmdl.triangle;fillColor=#cccccc;strokeColor=none;" vertex="1" parent="MjV814G-3i1wZ1misCgF-9">
          <mxGeometry x="1" y="0.5" width="10" height="5" relative="1" as="geometry">
            <mxPoint x="-25" y="-2.5" as="offset" />
          </mxGeometry>
        </mxCell>
        <mxCell id="MjV814G-3i1wZ1misCgF-11" value="Japanese" style="shape=rect;align=left;fontColor=#000000;verticalAlign=middle;spacingLeft=13;fontSize=14;fillColor=#eeeeee;strokeColor=none;resizeWidth=1;" vertex="1" parent="MjV814G-3i1wZ1misCgF-8">
          <mxGeometry width="360" height="30" relative="1" as="geometry">
            <mxPoint y="41" as="offset" />
          </mxGeometry>
        </mxCell>
        <mxCell id="MjV814G-3i1wZ1misCgF-12" value="Korean" style="text;fontColor=#000000;verticalAlign=middle;spacingLeft=13;fontSize=14;resizeWidth=1;" vertex="1" parent="MjV814G-3i1wZ1misCgF-8">
          <mxGeometry width="360" height="30" relative="1" as="geometry">
            <mxPoint y="72" as="offset" />
          </mxGeometry>
        </mxCell>
        <mxCell id="MjV814G-3i1wZ1misCgF-13" value="Hello" style="html=1;shadow=0;dashed=0;shape=mxgraph.bootstrap.rrect;rSize=5;strokeColor=#CED4DA;strokeWidth=1;fillColor=#E9ECEF;fontColor=#505050;whiteSpace=wrap;align=left;verticalAlign=middle;spacingLeft=10;fontSize=14;rounded=1;" vertex="1" parent="MjV814G-3i1wZ1misCgF-1">
          <mxGeometry x="405" y="420" width="350" height="40" as="geometry" />
        </mxCell>
        <mxCell id="MjV814G-3i1wZ1misCgF-14" value="Enter Text" style="text;html=1;align=left;verticalAlign=middle;resizable=0;points=[];autosize=1;strokeColor=none;fontSize=12;fontStyle=1" vertex="1" parent="MjV814G-3i1wZ1misCgF-1">
          <mxGeometry x="405" y="390" width="70" height="20" as="geometry" />
        </mxCell>
        <mxCell id="MjV814G-3i1wZ1misCgF-15" value="Select Language" style="text;html=1;align=left;verticalAlign=middle;resizable=0;points=[];autosize=1;strokeColor=none;fontSize=12;fontStyle=1" vertex="1" parent="MjV814G-3i1wZ1misCgF-1">
          <mxGeometry x="405" y="490" width="110" height="20" as="geometry" />
        </mxCell>
        <mxCell id="MjV814G-3i1wZ1misCgF-16" value="Output" style="text;html=1;align=left;verticalAlign=middle;resizable=0;points=[];autosize=1;strokeColor=none;fontSize=12;fontStyle=1" vertex="1" parent="MjV814G-3i1wZ1misCgF-1">
          <mxGeometry x="405" y="660" width="50" height="20" as="geometry" />
        </mxCell>
        <mxCell id="MjV814G-3i1wZ1misCgF-17" value="你好" style="text;html=1;align=left;verticalAlign=middle;resizable=0;points=[];autosize=1;strokeColor=none;fontSize=24;fontStyle=1" vertex="1" parent="MjV814G-3i1wZ1misCgF-1">
          <mxGeometry x="405" y="685" width="60" height="30" as="geometry" />
        </mxCell>
      </root>
    </mxGraphModel>
  </diagram>
</mxfile>
